HIERARCHY
ROOT SpineBase
{
  OFFSET 0.000000 0.000000 0.000000
  CHANNELS 6 Xposition Yposition Zposition Zrotation Xrotation Yrotation
  JOINT SpineMid
  {
    OFFSET -0.000000 30.694685 0.000000
    CHANNELS 3 Zrotation Xrotation Yrotation
    JOINT SpineShoulder
    {
      OFFSET -0.157376 22.676627 -0.894104
      CHANNELS 3 Zrotation Xrotation Yrotation
      JOINT Neck
      {
        OFFSET -0.098549 7.468457 -0.648999
        CHANNELS 3 Zrotation Xrotation Yrotation
        JOINT Head
        {
          OFFSET -1.880368 13.239903 -1.740226
          CHANNELS 3 Zrotation Xrotation Yrotation
          End Site
          {
            OFFSET 0 0 0
          }
        }
      }
      JOINT ShoulderLeft
      {
        OFFSET -16.611336 -5.087465 6.171341
        CHANNELS 3 Zrotation Xrotation Yrotation
        JOINT ElbowLeft
        {
          OFFSET -1.318522 -25.326661 3.117611
          CHANNELS 3 Zrotation Xrotation Yrotation
          JOINT WristLeft
          {
            OFFSET -1.280618 -25.548586 0.201323
            CHANNELS 3 Zrotation Xrotation Yrotation
            JOINT HandLeft
            {
              OFFSET -0.188071 -3.894391 0.822920
              CHANNELS 3 Zrotation Xrotation Yrotation
              JOINT HandTipLeft
              {
                OFFSET 1.013501 -5.928472 -1.571785
                CHANNELS 3 Zrotation Xrotation Yrotation
                End Site
                {
                  OFFSET 0 0 0
                }
              }
              JOINT ThumbLeft
              {
                OFFSET 2.028460 0.027513 -3.724938
                CHANNELS 3 Zrotation Xrotation Yrotation
                End Site
                {
                  OFFSET 0 0 0
                }
              }
            }
          }
        }
      }
      JOINT ShoulderRight
      {
        OFFSET 15.026406 -3.480927 -6.061341
        CHANNELS 3 Zrotation Xrotation Yrotation
        JOINT ElbowRight
        {
          OFFSET 6.526457 -24.831851 0.373615
          CHANNELS 3 Zrotation Xrotation Yrotation
          JOINT WristRight
          {
            OFFSET -0.113618 -22.190643 -5.539336
            CHANNELS 3 Zrotation Xrotation Yrotation
            JOINT HandRight
            {
              OFFSET -2.281773 -6.272320 -0.738126
              CHANNELS 3 Zrotation Xrotation Yrotation
              JOINT HandTipRight
              {
                OFFSET -0.668784 -7.004791 -2.263531
                CHANNELS 3 Zrotation Xrotation Yrotation
                End Site
                {
                  OFFSET 0 0 0
                }
              }
              JOINT ThumbRight
              {
                OFFSET 1.976593 -0.873368 -3.526912
                CHANNELS 3 Zrotation Xrotation Yrotation
                End Site
                {
                  OFFSET 0 0 0
                }
              }
            }
          }
        }
      }
    }
  }
  JOINT HipLeft
  {
    OFFSET -7.345688 0.150721 -1.425955
    CHANNELS 3 Zrotation Xrotation Yrotation
    JOINT KneeLeft
    {
      OFFSET 0.962118 -34.875295 3.935427
      CHANNELS 3 Zrotation Xrotation Yrotation
      JOINT AnkleLeft
      {
        OFFSET 3.343951 -31.613402 6.749098
        CHANNELS 3 Zrotation Xrotation Yrotation
        JOINT FootLeft
        {
          OFFSET -4.155340 -4.165916 -13.157084
          CHANNELS 3 Zrotation Xrotation Yrotation
          End Site
          {
            OFFSET 0 0 0
          }
        }
      }
    }
  }
  JOINT HipRight
  {
    OFFSET 6.196655 0.781173 -6.149141
    CHANNELS 3 Zrotation Xrotation Yrotation
    JOINT KneeRight
    {
      OFFSET 4.946444 -34.674883 1.593714
      CHANNELS 3 Zrotation Xrotation Yrotation
      JOINT AnkleRight
      {
        OFFSET 3.378089 -29.588260 6.822326
        CHANNELS 3 Zrotation Xrotation Yrotation
        JOINT FootRight
        {
          OFFSET -4.327367 -4.180236 -13.133111
          CHANNELS 3 Zrotation Xrotation Yrotation
          End Site
          {
            OFFSET 0 0 0
          }
        }
      }
    }
  }
}
MOTION
Frames: 8
Frame Time: 0.033333
56.447479 70.853825 373.065920 0.000000 0.000000 19.227325 -0.000000 0.000000 -19.227325 -0.000000 0.000000 0.000000 -0.000000 0.000000 0.000000 0.000000 0.000000 0.000000 -0.000000 0.000000 0.000000 -0.000000 0.000000 0.000000 -0.000000 0.000000 0.000000 -0.000000 0.000000 0.000000 0.000000 0.000000 0.000000 0.000000 0.000000 0.000000 -0.000000 0.000000 0.000000 -0.000000 0.000000 0.000000 -0.000000 0.000000 0.000000 -0.000000 0.000000 0.000000 0.000000 0.000000 0.000000 0.000000 0.000000 0.000000 -0.000000 0.000000 -19.227325 -0.000000 0.000000 0.000000 -0.000000 0.000000 0.000000 0.000000 0.000000 0.000000 -0.000000 0.000000 -19.227325 -0.000000 0.000000 0.000000 -0.000000 0.000000 0.000000 0.000000 0.000000 0.000000
56.464915 70.833783 373.047546 0.070689 -0.085888 19.055098 -0.038775 0.104260 -19.055009 -0.000000 0.000000 0.000000 -0.000000 0.000000 0.000000 0.000000 0.000000 0.000000 -0.000000 0.000000 0.000000 -0.545667 0.903649 -0.045285 3.386344 15.236095 -0.501056 -1.114587 -19.634412 -0.710396 0.000000 0.000000 0.000000 0.000000 0.000000 0.000000 -0.000000 0.000000 0.000000 -0.000000 0.000000 0.000000 -0.000000 0.000000 0.000000 0.446903 -1.172774 -0.027967 0.000000 0.000000 0.000000 0.000000 0.000000 0.000000 -0.038775 0.104260 -19.055009 -0.000000 0.000000 0.000000 -0.000000 0.000000 0.000000 0.000000 0.000000 0.000000 -0.038775 0.104260 -19.055009 -0.000000 0.000000 0.000000 -0.000000 0.000000 0.000000 0.000000 0.000000 0.000000
56.482295 70.815319 373.027205 0.137975 -0.154413 18.871682 -0.080614 0.190740 -18.871362 -0.000000 0.000000 0.000000 -0.000000 0.000000 0.000000 0.000000 0.000000 0.000000 -0.000000 0.000000 0.000000 -0.994784 2.082438 -0.094125 6.006253 24.264008 -1.139739 -2.045675 -32.279805 -1.160525 0.000000 0.000000 0.000000 0.000000 0.000000 0.000000 -0.000000 0.000000 0.000000 -0.000000 0.000000 0.000000 -0.000000 0.000000 0.000000 0.931188 -2.170205 -0.076576 0.000000 0.000000 0.000000 0.000000 0.000000 0.000000 -0.080614 0.190740 -18.871362 -0.000000 0.000000 0.000000 -0.000000 0.000000 0.000000 0.000000 0.000000 0.000000 -0.080614 0.190740 -18.871362 -0.000000 0.000000 0.000000 -0.000000 0.000000 0.000000 0.000000 0.000000 0.000000
56.499619 70.798434 373.004897 0.201868 -0.205596 18.677022 -0.125401 0.259413 -18.676376 -0.000000 0.000000 0.000000 -0.913441 0.026701 -0.116193 0.000000 0.000000 0.000000 -0.727078 -0.501080 -0.066536 -0.620988 4.046123 -0.074652 7.971094 29.043272 -1.574827 -3.116176 -39.948572 -1.614189 0.000000 0.000000 0.000000 0.000000 0.000000 0.000000 -0.000000 0.000000 0.000000 0.112217 -1.021734 -0.021829 -0.112624 1.021689 0.023834 1.451756 -2.981834 -0.148027 0.000000 0.000000 0.000000 0.000000 0.000000 0.000000 -0.125401 0.259413 -18.676376 -0.000000 0.000000 0.000000 -0.000000 0.000000 0.000000 0.000000 0.000000 0.000000 -0.125401 0.259413 -18.676376 -0.000000 0.000000 0.000000 -0.000000 0.000000 0.000000 0.000000 0.000000 0.000000
56.516886 70.783127 372.980622 0.262375 -0.239455 18.471084 -0.172996 0.310244 -18.470068 -0.000000 0.000000 0.000000 -1.163243 0.002341 -0.152764 0.000000 0.000000 0.000000 -1.098232 -0.351224 -0.120168 -0.499399 5.652106 -0.081210 9.392565 31.028118 -1.696781 -4.612737 -44.132690 -2.267261 0.000000 0.000000 0.000000 0.000000 0.000000 0.000000 -0.000000 0.000000 0.000000 0.172244 -1.275782 -0.034643 0.347600 2.047015 -0.318702 1.514298 -4.360515 0.121683 0.000000 0.000000 0.000000 0.000000 0.000000 0.000000 -0.172996 0.310244 -18.470068 -0.000000 0.000000 0.000000 0.256100 0.048993 -0.858552 0.000000 0.000000 0.000000 -0.172996 0.310244 -18.470068 -0.000000 0.000000 0.000000 0.251885 0.054742 -0.848782 0.000000 0.000000 0.000000
56.534097 70.769399 372.954379 0.319504 -0.256005 18.253861 -0.223242 0.343197 -18.252479 -0.000000 0.000000 0.000000 -1.385964 -0.038703 -0.188457 0.000000 0.000000 0.000000 -1.533240 -0.042690 -0.186957 -0.207710 7.398742 -0.083691 10.379354 31.038868 -1.493291 -6.685182 -45.653762 -3.187545 0.000000 0.000000 0.000000 0.000000 0.000000 0.000000 -0.000000 0.000000 0.000000 0.243248 -1.484881 -0.050128 0.298944 2.421831 -0.367185 2.090899 -4.935004 0.074561 0.000000 0.000000 0.000000 0.000000 0.000000 0.000000 -0.223242 0.343197 -18.252479 -0.000000 0.000000 0.000000 0.308085 0.063412 -1.037379 0.000000 0.000000 0.000000 -0.223242 0.343197 -18.252479 -0.000000 0.000000 0.000000 0.303038 0.070570 -1.026099 0.000000 0.000000 0.000000
56.546889 70.749642 372.928701 0.364084 -0.241245 18.041692 -0.271472 0.342140 -18.040115 -0.000000 0.000000 0.000000 -1.540513 -0.173791 -0.229906 0.000000 0.000000 0.000000 -2.187206 0.555033 -0.287454 0.215323 10.063850 -0.075797 11.384206 27.943515 -0.610920 -9.511916 -42.701810 -4.114687 0.000000 0.000000 0.000000 0.000000 0.000000 0.000000 -0.204316 -0.892802 -0.239406 0.530120 -0.853533 0.164348 0.237146 2.970369 -0.457302 3.012702 -4.609593 -0.136928 0.000000 0.000000 0.000000 0.000000 0.000000 0.000000 -0.271472 0.342140 -18.040115 -0.372700 -0.722678 -0.158203 0.719420 0.804961 -1.034045 0.000000 0.000000 0.000000 -0.271472 0.342140 -18.040115 -0.000000 0.000000 0.000000 0.342971 0.089189 -1.170839 0.000000 0.000000 0.000000
56.564353 70.732246 372.901067 0.404888 -0.215074 17.823032 -0.319632 0.328675 -17.821355 -0.000000 0.000000 0.000000 -1.653237 -0.276317 -0.260995 0.000000 0.000000 0.000000 -2.806549 1.258673 -0.380267 0.885938 12.743154 -0.083125 12.212260 23.620262 0.565899 -14.105784 -37.063383 -5.340922 0.000000 0.000000 0.000000 0.000000 0.000000 0.000000 -0.263460 -1.109141 -0.298170 0.692098 -0.804297 0.195371 0.244870 3.668481 -0.645803 3.994350 -6.260980 -0.026590 0.000000 0.000000 0.000000 0.000000 0.000000 0.000000 -0.319632 0.328675 -17.821355 -0.377637 -0.761735 -0.163531 0.759864 0.860805 -1.159137 0.000000 0.000000 0.000000 -0.319632 0.328675 -17.821355 -0.000000 0.000000 0.000000 0.378212 0.107036 -1.299967 0.000000 0.000000 0.000000
